<svg width="96" height="96" xmlns="http://www.w3.org/2000/svg" xmlns:xlink="http://www.w3.org/1999/xlink" overflow="hidden"><defs><clipPath id="clip0"><rect x="439" y="295" width="96" height="96"/></clipPath></defs><g clip-path="url(#clip0)" transform="translate(-439 -295)"><path d="M469.73 326 462.27 333.4C453.86 341.81 451.86 356.05 458.32 365.66 457.06 367.112 457.216 369.31 458.668 370.569 459.936 371.669 461.808 371.707 463.12 370.66 472.72 377.82 487.55 375.96 496.21 367.3L503.67 359.85C501.14 355.5 496.17 348.85 488.43 341.14 480.69 333.43 474.08 328.47 469.73 326Z" fill="#FFFFFF"/><path d="M519.13 344.86C519.13 344.76 519.06 344.65 519.02 344.54 516.92 339.54 512.53 332.54 513.75 326.69L513.75 326.69C513.946 325.506 513.546 324.301 512.68 323.47L512 322.72C514.8 320.63 517 319.41 518.33 319.42L518.33 313.42C515.6 313.42 511.88 315.35 507.72 318.48L506.16 316.92C505.331 316.052 504.123 315.654 502.94 315.86L502.94 315.86C497.1 317.08 490.07 312.69 485.09 310.59L484.77 310.48C478.79 308.276 472.155 311.337 469.951 317.318 469.493 318.561 469.252 319.875 469.24 321.2 477.72 325 489.51 336.6 491.24 338.35 492.97 340.1 504.6 351.89 508.39 360.35 514.758 360.301 519.88 355.099 519.831 348.732 519.821 347.411 519.584 346.101 519.13 344.86Z" fill="#FFFFFF"/></g></svg>